<?xml version="1.0" encoding="UTF-8"?>
<svg width="400" height="400" viewBox="0 0 400 400" xmlns="http://www.w3.org/2000/svg">
  <defs>
    <linearGradient id="bgGradient" x1="0%" y1="0%" x2="100%" y2="100%">
      <stop offset="0%" stop-color="#6c3483" />
      <stop offset="100%" stop-color="#9b59b6" />
    </linearGradient>
    <radialGradient id="auraGradient" cx="50%" cy="50%" r="50%" fx="50%" fy="50%">
      <stop offset="0%" stop-color="#ffffff" stop-opacity="0.7" />
      <stop offset="100%" stop-color="#ffffff" stop-opacity="0" />
    </radialGradient>
    <radialGradient id="lightGradient" cx="50%" cy="50%" r="50%" fx="50%" fy="50%">
      <stop offset="0%" stop-color="#ffffff" />
      <stop offset="100%" stop-color="#f5f5f5" />
    </radialGradient>
    <filter id="glow" x="-50%" y="-50%" width="200%" height="200%">
      <feGaussianBlur in="SourceGraphic" stdDeviation="10" />
    </filter>
    <filter id="softShadow" x="-20%" y="-20%" width="140%" height="140%">
      <feGaussianBlur in="SourceAlpha" stdDeviation="3" />
      <feOffset dx="2" dy="2" result="offsetblur" />
      <feComponentTransfer>
        <feFuncA type="linear" slope="0.5" />
      </feComponentTransfer>
      <feMerge>
        <feMergeNode />
        <feMergeNode in="SourceGraphic" />
      </feMerge>
    </filter>
  </defs>
  
  <!-- Background -->
  <rect width="400" height="400" fill="url(#bgGradient)" rx="20" ry="20" />
  
  <!-- Mystical background elements -->
  <g opacity="0.2">
    <circle cx="50" cy="50" r="30" fill="#ffffff" />
    <circle cx="350" cy="50" r="20" fill="#ffffff" />
    <circle cx="50" cy="350" r="20" fill="#ffffff" />
    <circle cx="350" cy="350" r="30" fill="#ffffff" />
  </g>
  
  <!-- Ethereal swirls -->
  <g opacity="0.3" fill="none" stroke="#ffffff" stroke-width="1">
    <path d="M50 100 Q100 50, 150 100 Q200 150, 250 100 Q300 50, 350 100" />
    <path d="M50 150 Q100 100, 150 150 Q200 200, 250 150 Q300 100, 350 150" />
    <path d="M50 200 Q100 150, 150 200 Q200 250, 250 200 Q300 150, 350 200" />
    <path d="M50 250 Q100 200, 150 250 Q200 300, 250 250 Q300 200, 350 250" />
    <path d="M50 300 Q100 250, 150 300 Q200 350, 250 300 Q300 250, 350 300" />
  </g>
  
  <!-- Central glowing orb -->
  <g opacity="0.8">
    <circle cx="200" cy="200" r="30" fill="#ffffff" filter="url(#glow)" />
    <circle cx="200" cy="200" r="20" fill="url(#lightGradient)" />
  </g>
  
  <!-- Human silhouette with aura -->
  <g transform="translate(150, 180)">
    <!-- Aura -->
    <ellipse cx="50" cy="100" rx="70" ry="100" fill="url(#auraGradient)" opacity="0.5" />
    
    <!-- Figure silhouette -->
    <g filter="url(#softShadow)">
      <!-- Head -->
      <circle cx="50" cy="40" r="20" fill="#39125c" />
      
      <!-- Torso -->
      <path d="M50 60 L50 130 M30 70 L70 70" stroke="#39125c" stroke-width="6" stroke-linecap="round" />
      
      <!-- Arms -->
      <path d="M30 70 L20 110 M70 70 L80 110" stroke="#39125c" stroke-width="4" stroke-linecap="round" />
      
      <!-- Legs -->
      <path d="M50 130 L40 180 M50 130 L60 180" stroke="#39125c" stroke-width="5" stroke-linecap="round" />
    </g>
    
    <!-- Energy lines radiating from body -->
    <g stroke="#ffffff" stroke-width="1" opacity="0.6">
      <path d="M30 40 L10 20" />
      <path d="M70 40 L90 20" />
      <path d="M20 60 L0 50" />
      <path d="M80 60 L100 50" />
      <path d="M25 100 L5 100" />
      <path d="M75 100 L95 100" />
      <path d="M30 140 L10 150" />
      <path d="M70 140 L90 150" />
    </g>
  </g>
  
  <!-- Spirit figures / ethereal entities -->
  <g opacity="0.4">
    <!-- Spirit 1 -->
    <g transform="translate(60, 120)">
      <path d="M0 0 Q15 20, 30 0 Q45 -20, 60 0 Q45 30, 30 40 Q15 30, 0 0 Z" fill="#ffffff" />
      <circle cx="20" cy="10" r="3" fill="#39125c" />
      <circle cx="40" cy="10" r="3" fill="#39125c" />
      <path d="M25 20 Q30 25, 35 20" stroke="#39125c" stroke-width="1.5" fill="none" />
    </g>
    
    <!-- Spirit 2 -->
    <g transform="translate(300, 130) scale(0.8)">
      <path d="M0 0 Q15 20, 30 0 Q45 -20, 60 0 Q45 30, 30 40 Q15 30, 0 0 Z" fill="#ffffff" />
      <circle cx="20" cy="10" r="3" fill="#39125c" />
      <circle cx="40" cy="10" r="3" fill="#39125c" />
      <path d="M25 20 Q30 25, 35 20" stroke="#39125c" stroke-width="1.5" fill="none" />
    </g>
    
    <!-- Spirit 3 -->
    <g transform="translate(80, 280) scale(0.7)">
      <path d="M0 0 Q15 20, 30 0 Q45 -20, 60 0 Q45 30, 30 40 Q15 30, 0 0 Z" fill="#ffffff" />
      <circle cx="20" cy="10" r="3" fill="#39125c" />
      <circle cx="40" cy="10" r="3" fill="#39125c" />
      <path d="M25 20 Q30 25, 35 20" stroke="#39125c" stroke-width="1.5" fill="none" />
    </g>
    
    <!-- Spirit 4 -->
    <g transform="translate(280, 260) scale(0.9)">
      <path d="M0 0 Q15 20, 30 0 Q45 -20, 60 0 Q45 30, 30 40 Q15 30, 0 0 Z" fill="#ffffff" />
      <circle cx="20" cy="10" r="3" fill="#39125c" />
      <circle cx="40" cy="10" r="3" fill="#39125c" />
      <path d="M25 20 Q30 25, 35 20" stroke="#39125c" stroke-width="1.5" fill="none" />
    </g>
  </g>
  
  <!-- Connection lines between human and spirits -->
  <g stroke="#ffffff" stroke-opacity="0.3" stroke-width="1" stroke-dasharray="5,5">
    <line x1="185" y1="220" x2="90" y2="130" />
    <line x1="215" y1="220" x2="320" y2="140" />
    <line x1="190" y1="250" x2="110" y2="290" />
    <line x1="210" y1="250" x2="300" y2="270" />
  </g>
  
  <!-- Light rays from top -->
  <g opacity="0.5">
    <path d="M150 0 L180 100" stroke="#ffffff" stroke-width="1" />
    <path d="M200 0 L200 80" stroke="#ffffff" stroke-width="1" />
    <path d="M250 0 L220 100" stroke="#ffffff" stroke-width="1" />
  </g>
  
  <!-- Spiritual symbols -->
  <g fill="#ffffff" opacity="0.5">
    <path d="M40 40 L45 50 L50 40 L45 30 Z" />
    <path d="M350 40 L355 50 L360 40 L355 30 Z" />
    <path d="M40 350 L45 360 L50 350 L45 340 Z" />
    <path d="M350 350 L355 360 L360 350 L355 340 Z" />
  </g>
</svg>