<?xml version="1.0" encoding="UTF-8"?>
<svg width="400" height="400" viewBox="0 0 400 400" xmlns="http://www.w3.org/2000/svg">
  <defs>
    <linearGradient id="bgGradient" x1="0%" y1="0%" x2="100%" y2="100%">
      <stop offset="0%" stop-color="#096b47" />
      <stop offset="100%" stop-color="#00b894" />
    </linearGradient>
    <linearGradient id="glowGradient" x1="0%" y1="0%" x2="100%" y2="100%">
      <stop offset="0%" stop-color="#ffffff" stop-opacity="0.7" />
      <stop offset="100%" stop-color="#ffffff" stop-opacity="0" />
    </linearGradient>
  </defs>
  
  <!-- Background -->
  <rect width="400" height="400" fill="url(#bgGradient)" rx="20" ry="20" />
  
  <!-- Decorative elements -->
  <g opacity="0.2">
    <rect x="20" y="20" width="40" height="40" fill="#ffffff" />
    <rect x="340" y="20" width="40" height="40" fill="#ffffff" />
    <rect x="20" y="340" width="40" height="40" fill="#ffffff" />
    <rect x="340" y="340" width="40" height="40" fill="#ffffff" />
  </g>
  
  <!-- Sacred geometry background -->
  <g opacity="0.15" fill="none" stroke="#ffffff" stroke-width="1">
    <circle cx="200" cy="200" r="150" />
    <circle cx="200" cy="200" r="120" />
    <circle cx="200" cy="200" r="90" />
    <circle cx="200" cy="200" r="60" />
    <line x1="50" y1="200" x2="350" y2="200" />
    <line x1="200" y1="50" x2="200" y2="350" />
    <line x1="91" y1="91" x2="309" y2="309" />
    <line x1="91" y1="309" x2="309" y2="91" />
  </g>
  
  <!-- Numbers in various positions -->
  <g fill="#ffffff" font-family="Arial" font-weight="bold">
    <!-- Center Number -->
    <text x="200" y="210" font-size="45" text-anchor="middle">9</text>
    
    <!-- Numbers around the perimeter -->
    <g opacity="0.8">
      <text x="200" y="80" font-size="24" text-anchor="middle">1</text>
      <text x="280" y="120" font-size="24" text-anchor="middle">2</text>
      <text x="320" y="200" font-size="24" text-anchor="middle">3</text>
      <text x="280" y="280" font-size="24" text-anchor="middle">4</text>
      <text x="200" y="320" font-size="24" text-anchor="middle">5</text>
      <text x="120" y="280" font-size="24" text-anchor="middle">6</text>
      <text x="80" y="200" font-size="24" text-anchor="middle">7</text>
      <text x="120" y="120" font-size="24" text-anchor="middle">8</text>
    </g>
    
    <!-- Middle ring numbers -->
    <g opacity="0.6">
      <text x="200" y="110" font-size="16" text-anchor="middle">11</text>
      <text x="250" y="140" font-size="16" text-anchor="middle">22</text>
      <text x="290" y="200" font-size="16" text-anchor="middle">33</text>
      <text x="250" y="260" font-size="16" text-anchor="middle">44</text>
      <text x="200" y="290" font-size="16" text-anchor="middle">55</text>
      <text x="150" y="260" font-size="16" text-anchor="middle">66</text>
      <text x="110" y="200" font-size="16" text-anchor="middle">77</text>
      <text x="150" y="140" font-size="16" text-anchor="middle">88</text>
    </g>
  </g>
  
  <!-- Mathematical formulas and calculations -->
  <g fill="#ffffff" opacity="0.6" font-family="Arial" font-size="12">
    <text x="40" y="40" text-anchor="start">1+8=9</text>
    <text x="320" y="40" text-anchor="end">3×3=9</text>
    <text x="40" y="360" text-anchor="start">4+5=9</text>
    <text x="320" y="360" text-anchor="end">6+3=9</text>
    
    <text x="100" y="30" text-anchor="start">2+7=9</text>
    <text x="300" y="30" text-anchor="end">18/2=9</text>
    <text x="100" y="370" text-anchor="start">36/4=9</text>
    <text x="300" y="370" text-anchor="end">27/3=9</text>
  </g>
  
  <!-- Birth chart elements -->
  <g opacity="0.8">
    <rect x="50" y="150" width="60" height="30" rx="5" ry="5" fill="none" stroke="#ffffff" stroke-width="1" />
    <text x="80" y="170" font-size="12" fill="#ffffff" text-anchor="middle">11.5.1975</text>
    
    <rect x="290" y="150" width="60" height="30" rx="5" ry="5" fill="none" stroke="#ffffff" stroke-width="1" />
    <text x="320" y="170" font-size="12" fill="#ffffff" text-anchor="middle">23.9.1988</text>
    
    <rect x="50" y="220" width="60" height="30" rx="5" ry="5" fill="none" stroke="#ffffff" stroke-width="1" />
    <text x="80" y="240" font-size="12" fill="#ffffff" text-anchor="middle">5.3.2001</text>
    
    <rect x="290" y="220" width="60" height="30" rx="5" ry="5" fill="none" stroke="#ffffff" stroke-width="1" />
    <text x="320" y="240" font-size="12" fill="#ffffff" text-anchor="middle">17.12.1995</text>
  </g>
  
  <!-- Numerology paths/life paths -->
  <g opacity="0.4">
    <path d="M80 170 L200 200 L320 170" stroke="#ffffff" stroke-width="1" fill="none" />
    <path d="M80 240 L200 200 L320 240" stroke="#ffffff" stroke-width="1" fill="none" />
  </g>
  
  <!-- Glowing center effect -->
  <circle cx="200" cy="200" r="40" fill="url(#glowGradient)" opacity="0.5" />
  
  <!-- Golden ratio spiral suggestion -->
  <path d="M200 200 C200 170, 230 170, 230 200 C230 230, 200 230, 200 200" stroke="#ffd700" stroke-width="2" fill="none" opacity="0.6" />
  <path d="M200 200 C200 160, 240 160, 240 200 C240 240, 200 240, 200 200" stroke="#ffd700" stroke-width="1.5" fill="none" opacity="0.5" />
  <path d="M200 200 C200 150, 250 150, 250 200 C250 250, 200 250, 200 200" stroke="#ffd700" stroke-width="1" fill="none" opacity="0.4" />
  <path d="M200 200 C200 140, 260 140, 260 200 C260 260, 200 260, 200 200" stroke="#ffd700" stroke-width="0.8" fill="none" opacity="0.3" />
</svg>