<svg width="32" height="32" viewBox="0 0 32 32" fill="none" xmlns="http://www.w3.org/2000/svg">
  <defs>
    <linearGradient id="gradient" x1="0%" y1="0%" x2="100%" y2="100%">
      <stop offset="0%" style="stop-color:#8B5CF6;stop-opacity:1" />
      <stop offset="50%" style="stop-color:#A855F7;stop-opacity:1" />
      <stop offset="100%" style="stop-color:#C084FC;stop-opacity:1" />
    </linearGradient>
  </defs>
  
  <!-- Círculo místico de fundo -->
  <circle cx="16" cy="16" r="15" fill="url(#gradient)" stroke="#4C1D95" stroke-width="2"/>
  
  <!-- Estrela central -->
  <path d="M16 6L18.5 11.5L24 12L19.5 16L20.5 22L16 19L11.5 22L12.5 16L8 12L13.5 11.5L16 6Z" 
        fill="#FEF9E7" stroke="#F59E0B" stroke-width="0.5"/>
  
  <!-- Símbolos místicos ao redor -->
  <circle cx="10" cy="10" r="1.5" fill="#FEF9E7" opacity="0.8"/>
  <circle cx="22" cy="10" r="1.5" fill="#FEF9E7" opacity="0.8"/>
  <circle cx="10" cy="22" r="1.5" fill="#FEF9E7" opacity="0.8"/>
  <circle cx="22" cy="22" r="1.5" fill="#FEF9E7" opacity="0.8"/>
  
  <!-- Crescente lunar -->
  <path d="M6 16C6 12 8 8 12 8C8 8 6 12 6 16C6 20 8 24 12 24C8 24 6 20 6 16Z" 
        fill="#FEF9E7" opacity="0.6"/>
</svg>