<?xml version="1.0" encoding="UTF-8"?>
<svg width="400" height="400" viewBox="0 0 400 400" xmlns="http://www.w3.org/2000/svg">
  <defs>
    <linearGradient id="skyGradient" x1="0%" y1="0%" x2="0%" y2="100%">
      <stop offset="0%" stop-color="#0b1354" />
      <stop offset="100%" stop-color="#4568dc" />
    </linearGradient>
    <linearGradient id="moonGradient" x1="0%" y1="0%" x2="100%" y2="100%">
      <stop offset="0%" stop-color="#f5f5f5" />
      <stop offset="100%" stop-color="#e0e0e0" />
    </linearGradient>
    <radialGradient id="sunGradient" cx="50%" cy="50%" r="50%" fx="50%" fy="50%">
      <stop offset="0%" stop-color="#ffd700" />
      <stop offset="80%" stop-color="#ff8c00" />
      <stop offset="100%" stop-color="#ff4500" />
    </radialGradient>
  </defs>
  
  <!-- Background -->
  <rect width="400" height="400" fill="url(#skyGradient)" rx="20" ry="20" />
  
  <!-- Stars -->
  <g opacity="0.8">
    <circle cx="50" cy="50" r="1.5" fill="white" />
    <circle cx="80" cy="70" r="1" fill="white" />
    <circle cx="120" cy="40" r="1.2" fill="white" />
    <circle cx="180" cy="30" r="1" fill="white" />
    <circle cx="220" cy="60" r="1.5" fill="white" />
    <circle cx="250" cy="80" r="1" fill="white" />
    <circle cx="300" cy="50" r="1.2" fill="white" />
    <circle cx="320" cy="90" r="1" fill="white" />
    <circle cx="350" cy="70" r="1.5" fill="white" />
    <circle cx="60" cy="120" r="1" fill="white" />
    <circle cx="30" cy="150" r="1.2" fill="white" />
    <circle cx="90" cy="180" r="1" fill="white" />
    <circle cx="40" cy="220" r="1.5" fill="white" />
    <circle cx="70" cy="260" r="1" fill="white" />
    <circle cx="30" cy="320" r="1.2" fill="white" />
    <circle cx="80" cy="350" r="1" fill="white" />
    <circle cx="130" cy="330" r="1.5" fill="white" />
    <circle cx="180" cy="360" r="1" fill="white" />
    <circle cx="240" cy="340" r="1.2" fill="white" />
    <circle cx="270" cy="370" r="1" fill="white" />
    <circle cx="330" cy="350" r="1.5" fill="white" />
    <circle cx="370" cy="300" r="1" fill="white" />
    <circle cx="350" cy="260" r="1.2" fill="white" />
    <circle cx="375" cy="220" r="1" fill="white" />
    <circle cx="350" cy="170" r="1.5" fill="white" />
    <circle cx="370" cy="130" r="1" fill="white" />
  </g>
  
  <!-- Bigger stars -->
  <g>
    <path d="M100 100 L102 105 L106 106 L102 108 L101 113 L99 108 L95 106 L99 104 Z" fill="white" />
    <path d="M300 200 L303 208 L310 210 L303 213 L302 220 L298 213 L291 210 L298 207 Z" fill="white" />
    <path d="M150 300 L152 305 L156 306 L152 308 L151 313 L149 308 L145 306 L149 304 Z" fill="white" />
    <path d="M50 200 L52 205 L56 206 L52 208 L51 213 L49 208 L45 206 L49 204 Z" fill="white" />
    <path d="M250 50 L252 55 L256 56 L252 58 L251 63 L249 58 L245 56 L249 54 Z" fill="white" />
    <path d="M350 300 L352 305 L356 306 L352 308 L351 313 L349 308 L345 306 L349 304 Z" fill="white" />
  </g>
  
  <!-- Planets and orbit paths -->
  <g opacity="0.8">
    <circle cx="200" cy="200" r="120" fill="none" stroke="rgba(255,255,255,0.2)" stroke-width="1" />
    <circle cx="200" cy="200" r="90" fill="none" stroke="rgba(255,255,255,0.2)" stroke-width="1" />
    <circle cx="200" cy="200" r="70" fill="none" stroke="rgba(255,255,255,0.2)" stroke-width="1" />
    <circle cx="200" cy="200" r="50" fill="none" stroke="rgba(255,255,255,0.2)" stroke-width="1" />
  </g>
  
  <!-- Sun at center -->
  <circle cx="200" cy="200" r="30" fill="url(#sunGradient)" />
  <circle cx="200" cy="200" r="30" fill="none" stroke="#ffd700" stroke-width="1" />
  
  <!-- Planets -->
  <circle cx="200" cy="80" r="12" fill="#a2a2a2" />
  <circle cx="260" cy="260" r="15" fill="#3498db" />
  <circle cx="110" cy="180" r="10" fill="#e74c3c" />
  <circle cx="290" cy="170" r="8" fill="#f1c40f" />
  
  <!-- Moon -->
  <circle cx="200" cy="110" r="5" fill="url(#moonGradient)" />
  
  <!-- Zodiac symbols at the outer edge -->
  <g transform="translate(200, 200)" opacity="0.7">
    <g transform="rotate(0)">
      <text x="130" y="0" fill="white" font-size="12" text-anchor="middle">♈︎</text>
    </g>
    <g transform="rotate(30)">
      <text x="130" y="0" fill="white" font-size="12" text-anchor="middle">♉︎</text>
    </g>
    <g transform="rotate(60)">
      <text x="130" y="0" fill="white" font-size="12" text-anchor="middle">♊︎</text>
    </g>
    <g transform="rotate(90)">
      <text x="130" y="0" fill="white" font-size="12" text-anchor="middle">♋︎</text>
    </g>
    <g transform="rotate(120)">
      <text x="130" y="0" fill="white" font-size="12" text-anchor="middle">♌︎</text>
    </g>
    <g transform="rotate(150)">
      <text x="130" y="0" fill="white" font-size="12" text-anchor="middle">♍︎</text>
    </g>
    <g transform="rotate(180)">
      <text x="130" y="0" fill="white" font-size="12" text-anchor="middle">♎︎</text>
    </g>
    <g transform="rotate(210)">
      <text x="130" y="0" fill="white" font-size="12" text-anchor="middle">♏︎</text>
    </g>
    <g transform="rotate(240)">
      <text x="130" y="0" fill="white" font-size="12" text-anchor="middle">♐︎</text>
    </g>
    <g transform="rotate(270)">
      <text x="130" y="0" fill="white" font-size="12" text-anchor="middle">♑︎</text>
    </g>
    <g transform="rotate(300)">
      <text x="130" y="0" fill="white" font-size="12" text-anchor="middle">♒︎</text>
    </g>
    <g transform="rotate(330)">
      <text x="130" y="0" fill="white" font-size="12" text-anchor="middle">♓︎</text>
    </g>
  </g>
  
  <!-- Constellations -->
  <g stroke="rgba(255,255,255,0.4)" stroke-width="0.5">
    <line x1="40" y1="60" x2="55" y2="75" />
    <line x1="55" y1="75" x2="70" y2="65" />
    <line x1="70" y1="65" x2="85" y2="80" />
    
    <line x1="300" y1="70" x2="320" y2="55" />
    <line x1="320" y1="55" x2="340" y2="65" />
    <line x1="340" y1="65" x2="360" y2="55" />
    
    <line x1="60" y1="320" x2="80" y2="335" />
    <line x1="80" y1="335" x2="100" y2="325" />
    <line x1="100" y1="325" x2="120" y2="340" />
    
    <line x1="320" y1="320" x2="335" y2="340" />
    <line x1="335" y1="340" x2="350" y2="320" />
    <line x1="350" y1="320" x2="365" y2="340" />
  </g>
</svg>